<svg xmlns="http://www.w3.org/2000/svg" viewBox="0 0 120 100">
  <defs>
    <linearGradient id="bodyGrad" x1="0%" y1="0%" x2="0%" y2="100%">
      <stop offset="0%" stop-color="#ff4757" />
      <stop offset="100%" stop-color="#ff6b81" />
    </linearGradient>
  </defs>
  <!-- Exhaust -->
  <path d="M 5 70 L 20 70 L 20 75 L 5 75 Z" fill="#747d8c" />
  <circle cx="5" cy="72.5" r="4" fill="#a4b0be" opacity="0.6"/>
  <!-- Wheels Background -->
  <circle cx="30" cy="85" r="14" fill="#2f3542" />
  <circle cx="90" cy="85" r="14" fill="#2f3542" />
  <!-- Body Main -->
  <path d="M 15 75 C 15 50, 40 40, 60 40 L 95 55 C 105 60, 110 70, 110 80 L 15 80 Z" fill="url(#bodyGrad)" />
  <path d="M 60 40 L 85 25 L 90 25 L 75 40 Z" fill="#f1f2f6" />
  <!-- Driver Head (Animal/Helmet) -->
  <circle cx="55" cy="35" r="15" fill="#1e90ff" />
  <path d="M 60 25 L 75 25 L 75 35 L 60 35 Z" fill="#fff" opacity="0.8" />
  <!-- Wheels Front -->
  <circle cx="30" cy="85" r="12" fill="#57606f" />
  <circle cx="30" cy="85" r="5" fill="#dfe4ea" />
  <circle cx="90" cy="85" r="12" fill="#57606f" />
  <circle cx="90" cy="85" r="5" fill="#dfe4ea" />
  <!-- Details -->
  <circle cx="105" cy="70" r="4" fill="#eccc68" />
</svg>
